<svg width="98" height="35" viewBox="0 0 98 35" fill="darkblue" xmlns="http://www.w3.org/2000/svg">
    <g clip-path="url(#clip0_2464_14050)">
        <path d="M60.8822 4.15332H52.8047V34.119H60.8822V4.15332Z"></path>
        <path d="M84.9737 15.8305C84.4775 14.9068 83.7759 14.1093 82.9229 13.4996C81.9384 12.7845 80.8329 12.253 79.6596 11.9307C78.2537 11.5316 76.7976 11.3369 75.3362 11.3524C73.1039 11.3524 71.2407 11.7036 69.7465 12.4058C68.2523 13.1081 67.116 14.0345 66.3375 15.185C65.5753 16.3063 65.123 17.6091 65.0264 18.9615H72.4607C72.4857 18.6588 72.5752 18.365 72.7233 18.0998C72.8714 17.8346 73.0745 17.6041 73.3191 17.424C73.8801 17.0625 74.5395 16.884 75.2062 16.913C75.8162 16.8861 76.4194 17.0498 76.932 17.3814C77.15 17.5291 77.3263 17.7304 77.4441 17.9659C77.5618 18.2014 77.617 18.4632 77.6044 18.7262V18.7845C77.6093 18.9864 77.5652 19.1865 77.4758 19.3677C77.3864 19.5488 77.2544 19.7055 77.0911 19.8244C76.7505 20.0769 76.1946 20.2764 75.4236 20.4228C74.6526 20.5693 73.6433 20.6866 72.3957 20.7747C71.2978 20.8512 70.2109 21.0419 69.1526 21.344C68.2114 21.6099 67.3251 22.041 66.5348 22.617C65.7807 23.1776 65.1771 23.916 64.7776 24.7664C64.3355 25.752 64.121 26.8244 64.1501 27.9042C64.1501 29.3984 64.4623 30.6273 65.0869 31.5911C65.708 32.5553 66.6055 33.3099 67.6621 33.7561C69.7304 34.5574 71.999 34.6845 74.1439 34.1192C74.9388 33.8981 75.6802 33.5167 76.3224 32.9986C77.0009 32.4393 77.5584 31.7476 77.9607 30.9657H78.1378V34.1192H85.6886V18.7262C85.6973 17.7162 85.4514 16.7204 84.9737 15.8305ZM77.6716 26.1605C77.6899 26.78 77.5101 27.3893 77.1584 27.8997C76.8197 28.3773 76.3603 28.7563 75.8271 28.9979C75.2875 29.2523 74.6978 29.3825 74.1013 29.3789C73.5006 29.4041 72.9086 29.2291 72.4181 28.8814C72.1997 28.7141 72.0254 28.496 71.9106 28.2459C71.7957 27.9959 71.7438 27.7216 71.7592 27.447C71.7545 27.0771 71.8505 26.713 72.0371 26.3936C72.2533 26.0521 72.5566 25.7744 72.9157 25.5889C73.3957 25.3388 73.9162 25.1757 74.4532 25.1071C74.7744 25.0578 75.0815 25.004 75.3743 24.9457C75.6769 24.8874 75.9593 24.8224 76.2238 24.7552C76.4882 24.688 76.7505 24.614 76.9835 24.5311C77.2166 24.4481 77.4565 24.3697 77.6716 24.2823V26.1605Z"></path>
        <path d="M89.4229 34.1035V12.5716H97.4914V34.1035H89.4229ZM93.4571 7.88065C92.4156 7.90006 91.4078 7.51157 90.6488 6.79812C90.2778 6.47383 89.9812 6.07325 89.7793 5.62377C89.5774 5.17429 89.4749 4.6865 89.4789 4.19377C89.4751 3.70106 89.5776 3.21332 89.7795 2.76386C89.9814 2.3144 90.2779 1.9138 90.6488 1.58942C91.4187 0.892666 92.4199 0.506836 93.4583 0.506836C94.4966 0.506836 95.4978 0.892666 96.2677 1.58942C96.6386 1.9138 96.9351 2.3144 97.137 2.76386C97.3389 3.21332 97.4414 3.70106 97.4376 4.19377C97.4416 4.6865 97.3391 5.17429 97.1372 5.62377C96.9353 6.07325 96.6387 6.47383 96.2677 6.79812C95.5093 7.51181 94.5005 7.89828 93.4594 7.87393L93.4571 7.88065Z" ></path>
        <path d="M38.2993 34.5C35.9086 34.5 33.8406 34.0413 32.0954 33.1239C30.3971 32.2249 29.0062 30.8387 28.1015 29.1434C27.1766 27.4086 26.7134 25.331 26.7119 22.9104C26.7119 20.5885 27.1803 18.5594 28.1172 16.8231C29.021 15.1195 30.3968 13.7126 32.0797 12.7709C33.7861 11.8042 35.8032 11.3216 38.1312 11.3231C39.7026 11.3007 41.2647 11.5682 42.7392 12.112C44.0694 12.6096 45.2739 13.3939 46.267 14.4093C47.263 15.4461 48.027 16.6831 48.5082 18.0379C49.0555 19.583 49.3234 21.2132 49.2994 22.8521V24.7258H34.5519V20.2769H41.8651C41.8685 19.6749 41.6956 19.0851 41.3675 18.5803C41.0583 18.0845 40.6176 17.6842 40.0945 17.4238C39.5414 17.1355 38.9251 16.9899 38.3015 17.0002C37.6784 16.9948 37.0633 17.1402 36.5085 17.4238C35.9789 17.6842 35.5256 18.0772 35.1929 18.5646C34.8637 19.0756 34.6858 19.6692 34.6796 20.2769V25.0755C34.6659 25.7467 34.82 26.4108 35.1279 27.0074C35.4229 27.5687 35.8755 28.0314 36.43 28.3388C37.0586 28.6771 37.7651 28.844 38.4786 28.8229C38.9946 28.8291 39.5081 28.7496 39.9981 28.5875C40.4403 28.4479 40.8492 28.219 41.1995 27.9152C41.5272 27.6189 41.778 27.2474 41.9301 26.8326H49.3061C49.0832 28.3246 48.464 29.7294 47.5131 30.9005C46.4959 32.09 45.1967 33.0054 43.7343 33.5632C42.1893 34.1862 40.3777 34.4985 38.2993 34.5Z"></path>
        <path d="M0.168945 34.119V4.15332H13.1033C15.3266 4.15332 17.2728 4.55824 18.9418 5.36809C20.5536 6.12672 21.9067 7.34262 22.8326 8.86446C23.7605 10.3855 24.2237 12.2099 24.2222 14.3376C24.2207 16.4653 23.7433 18.2778 22.79 19.7749C21.8237 21.2632 20.431 22.4255 18.7939 23.1099C17.089 23.857 15.0943 24.2306 12.8097 24.2306H8.28681V17.908H11.1713C11.9995 17.9265 12.825 17.8076 13.6143 17.5561C14.2482 17.3497 14.7985 16.9441 15.1832 16.3996C15.5779 15.7866 15.7721 15.066 15.739 14.3376C15.7714 13.5992 15.5766 12.8686 15.1809 12.2443C14.8027 11.6843 14.2518 11.2632 13.6121 11.0452C12.8295 10.762 12.001 10.6274 11.1691 10.6485H8.30474V34.119H0.168945ZM19.1301 22.9396L25.2173 34.119H16.3912L11.1198 24.2283" ></path>
    </g>
    <defs>
        <clipPath id="clip0_2464_14050">
            <rect width="97.3314" height="34" fill="white" transform="translate(0.168945 0.5)"></rect>
        </clipPath>
    </defs>
</svg>